<svg width="504" height="430" viewBox="0 0 504 430" fill="none" xmlns="http://www.w3.org/2000/svg">
<path d="M93.4141 91.3129C82.9263 95.8629 72.6287 100.533 62.5553 105.248C42.4404 114.662 12.8556 124.57 9.3213 149.111C6.68258 167.434 23.2274 183.096 36.7097 193.602C117.683 256.699 113.142 281.982 22.3314 310.877C-68.4794 339.771 138.115 485.689 368.926 406.951C529.773 352.081 479.301 283.037 433.924 246.221C406.894 224.291 421.057 182.196 456.414 179.442C463.635 178.905 470.88 178.728 478.119 178.912C508.731 179.59 507.291 148.603 497.851 129.033C479.302 90.5818 437.28 64.8269 396.628 51.7028C296.592 19.4074 187.369 50.5517 93.4141 91.3129Z" fill="white"/>
<path d="M296.418 92.6677C296.424 92.6677 296.435 92.6559 296.441 92.65C299.024 86.6682 302.025 80.4033 305.509 73.8552C306.046 72.8464 306.592 71.8317 307.148 70.8112C307.431 70.3039 307.714 69.7906 307.997 69.2774C308.852 67.7377 309.735 66.1823 310.645 64.6111C311.252 63.567 311.869 62.5149 312.496 61.4551C312.814 60.9241 313.133 60.3932 313.451 59.8623C314.094 58.7945 314.754 57.7209 315.42 56.6413C317.425 53.4086 319.546 50.1149 321.782 46.7602C322.153 46.1997 322.531 45.6393 322.908 45.0789C323.285 44.5139 323.667 43.9547 324.055 43.3898C321.037 42.8112 317.974 42.4965 314.901 42.4492C310.03 45.1141 305.81 48.825 302.543 53.3155C298.243 59.3115 294.639 65.7773 291.8 72.5882H291.806C293.54 72.9304 295.32 73.3787 297.16 73.9332C297.16 73.9332 297.26 79.7793 294.029 79.6554C292.573 79.6023 291.405 79.0419 289.471 78.5051H289.466C286.032 88.1124 283.584 98.0444 282.16 108.148C286.056 102.941 293.187 95.8239 296.418 92.6677ZM286.223 89.3832C286.164 88.9526 286.582 88.6694 286.812 88.9879C287.72 90.2445 289.843 91.8019 294.784 91.973C295.179 91.9847 295.249 92.7044 294.872 92.8519C292.03 93.9433 286.989 95.0287 286.223 89.3832V89.3832Z" fill="#EAC1D0"/>
<path d="M285.604 124.441C285.614 124.412 285.616 124.382 285.628 124.346C285.805 123.621 285.987 122.895 286.176 122.17C286.288 121.745 286.4 121.32 286.512 120.895C286.618 120.494 286.73 120.093 286.836 119.692C287.007 119.073 287.184 118.453 287.361 117.834C285.809 117.551 283.085 116.905 281.228 115.573C281.216 115.654 281.205 115.736 281.199 115.818C280.633 121.145 280.262 126.808 280.12 132.837C280.12 132.837 281.351 133.501 283.451 134.441C284.161 130.777 285.363 125.122 285.604 124.441Z" fill="#EAC1D0"/>
<path d="M281.725 147.672C281.772 147.076 281.831 146.48 281.89 145.884C281.896 145.825 281.901 145.76 281.907 145.701C281.913 145.637 281.919 145.572 281.931 145.507C281.984 144.923 282.049 144.333 282.114 143.749C282.126 143.643 282.137 143.542 282.149 143.436C282.232 142.752 282.32 142.062 282.408 141.377C282.414 141.336 282.42 141.301 282.426 141.259C282.603 139.867 282.768 138.469 282.974 137.083C282.964 137.074 282.953 137.065 282.947 137.06L282.948 137.056C281.676 135.901 280.705 134.453 280.12 132.837C280.006 137.641 280.044 142.676 280.234 147.942C280.723 147.928 281.213 147.92 281.705 147.918C281.712 147.836 281.718 147.754 281.725 147.672Z" fill="#EAC1D0"/>
<path d="M228.035 199.732C225.486 202.31 223.272 205.198 221.445 208.33C224.101 207.268 226.594 206.574 228.119 206.873C228.169 206.884 228.216 206.908 228.254 206.942C228.292 206.977 228.32 207.021 228.335 207.07C228.35 207.119 228.352 207.172 228.34 207.222C228.329 207.272 228.304 207.318 228.268 207.355C224.783 211.097 221.71 215.204 219.102 219.603C227.754 210.053 235.814 198.676 237.995 187.889C237.96 187.739 237.932 187.587 237.899 187.437C234.292 191.251 230.009 195.177 225.836 198.765C226.395 198.697 226.962 198.647 227.547 198.635C227.676 198.63 227.804 198.664 227.913 198.732C228.023 198.801 228.109 198.9 228.162 199.018C228.214 199.136 228.23 199.267 228.208 199.394C228.185 199.521 228.125 199.639 228.035 199.732V199.732Z" fill="#072249"/>
<path d="M283.446 134.441L283.451 134.443L283.451 134.443C281.357 133.505 280.12 132.837 280.12 132.837C280.705 134.453 281.676 135.901 282.948 137.056C283.078 136.167 283.264 135.319 283.446 134.441Z" fill="#061F3D"/>
<path d="M315.943 42.4641C318.105 42.5464 320.26 42.7605 322.396 43.1053C320.791 42.8471 319.171 42.6408 317.56 42.5243C317.015 42.4849 316.477 42.4725 315.943 42.4641Z" fill="#FCE4EC"/>
<path d="M286.837 119.692C286.731 120.093 286.619 120.494 286.513 120.895C286.401 121.32 286.289 121.745 286.177 122.17C285.988 122.895 285.805 123.621 285.628 124.346C285.617 124.382 285.615 124.412 285.605 124.441C285.364 125.122 284.161 130.777 283.452 134.441L283.452 134.443L283.451 134.443C283.463 134.449 283.478 134.454 283.488 134.459C287.265 136.144 291.169 137.53 295.162 138.606C299.252 139.735 303.449 140.433 307.685 140.689C303.281 141.474 298.794 141.684 294.337 141.314C290.192 140.907 285.953 139.762 283.04 137.137C283.028 137.125 282.999 137.102 282.975 137.083C282.769 138.469 282.604 139.867 282.427 141.259C282.421 141.301 282.415 141.336 282.409 141.377C282.321 142.062 282.232 142.752 282.15 143.436C282.138 143.542 282.126 143.643 282.114 143.749C282.05 144.333 281.985 144.923 281.932 145.507C281.92 145.572 281.914 145.637 281.908 145.702C281.902 145.761 281.896 145.825 281.89 145.884C281.831 146.48 281.772 147.076 281.725 147.672C281.719 147.754 281.713 147.836 281.706 147.918C281.773 147.918 281.84 147.915 281.907 147.915C290.869 147.839 299.711 149.977 307.649 154.139C307.655 154.139 307.666 154.151 307.678 154.151C313.462 156.091 322.837 158.793 331.71 159.442C333.47 159.571 335.235 159.607 336.999 159.548C337.771 159.519 338.526 159.477 339.268 159.401C346.214 158.715 353.191 158.412 360.169 158.492C361.021 158.502 361.827 158.52 362.61 158.541C362.99 158.049 363.369 157.548 363.743 157.028C367.243 152.171 369.887 146.75 371.559 141.001C370.023 140.949 368.525 140.512 367.203 139.73C360.917 135.953 360.552 125.006 366.39 115.279C366.577 114.967 366.768 114.661 366.963 114.36C368.612 107.363 376.807 67.8178 354.445 55.0383C347.346 50.9094 339.787 47.6305 331.922 45.2692C329.4 44.5272 326.842 43.9129 324.257 43.4286C324.193 43.4168 324.134 43.405 324.074 43.3932L324.055 43.3899V43.3899C323.667 43.9548 323.285 44.514 322.908 45.079C322.531 45.6395 322.154 46.1999 321.782 46.7603C319.542 50.111 317.421 53.4047 315.42 56.6414C314.754 57.721 314.094 58.7947 313.451 59.8624C313.133 60.3933 312.814 60.9242 312.496 61.4552C311.871 62.517 311.254 63.5691 310.645 64.6113C309.737 66.1805 308.854 67.7359 307.998 69.2775C307.714 69.7908 307.431 70.304 307.149 70.8113C306.594 71.8319 306.048 72.8465 305.509 73.8553C302.025 80.4034 299.024 86.6683 296.441 92.6501C296.436 92.656 296.424 92.6678 296.418 92.6678C293.187 95.824 286.056 102.941 282.16 108.148L282.138 108.177C280.263 110.69 279.143 112.743 279.573 113.693C279.946 114.449 280.511 115.094 281.212 115.563L281.229 115.573C283.086 116.905 285.81 117.551 287.362 117.834C287.185 118.453 287.008 119.073 286.837 119.692ZM329.015 102.776C323.967 104.179 314.072 105.778 312.323 97.4513C312.312 97.3917 312.321 97.33 312.35 97.2762C312.378 97.2224 312.423 97.1798 312.479 97.1551C312.534 97.1304 312.596 97.1252 312.655 97.1403C312.714 97.1553 312.766 97.1898 312.803 97.2381C314.335 99.2211 318.773 103.29 328.915 102.252C328.982 102.245 329.049 102.263 329.103 102.303C329.157 102.343 329.194 102.402 329.207 102.468C329.219 102.534 329.207 102.603 329.171 102.66C329.136 102.717 329.08 102.759 329.015 102.776V102.776ZM337.462 95.021C337.462 95.021 334.466 94.7574 323.44 89.8732C314.552 85.936 310.176 85.4156 307.213 84.1032C304.25 82.7908 306.907 77.5862 306.907 77.5862C328.099 80.9462 337.462 95.021 337.462 95.021V95.021Z" fill="#FCE4EC"/>
<path d="M294.337 141.314C298.795 141.684 303.282 141.474 307.685 140.689C303.45 140.433 299.253 139.735 295.162 138.606C291.169 137.53 287.266 136.144 283.488 134.459C283.478 134.454 283.463 134.449 283.452 134.443L283.447 134.441C283.265 135.319 283.079 136.167 282.949 137.056L282.948 137.06C282.953 137.065 282.965 137.075 282.975 137.083C282.999 137.102 283.028 137.125 283.04 137.137C285.953 139.762 290.192 140.907 294.337 141.314Z" fill="#072249"/>
<path d="M328.915 102.252C318.772 103.29 314.334 99.221 312.802 97.238C312.765 97.1897 312.713 97.1552 312.655 97.1401C312.596 97.1251 312.534 97.1303 312.478 97.155C312.423 97.1796 312.377 97.2223 312.349 97.2761C312.321 97.3299 312.312 97.3916 312.323 97.4512C314.071 105.778 323.967 104.179 329.015 102.776C329.08 102.758 329.136 102.717 329.171 102.66C329.206 102.603 329.219 102.534 329.207 102.468C329.194 102.402 329.157 102.343 329.103 102.303C329.049 102.263 328.982 102.245 328.915 102.252Z" fill="#072249"/>
<path d="M294.783 91.973C289.842 91.802 287.72 90.2446 286.812 88.988C286.582 88.6695 286.163 88.9527 286.222 89.3833C286.989 95.0288 292.03 93.9434 294.872 92.852C295.249 92.7045 295.178 91.9848 294.783 91.973Z" fill="#072249"/>
<path d="M307.212 84.1031C310.175 85.4155 314.551 85.9359 323.44 89.8731C334.466 94.7573 337.462 95.0209 337.462 95.0209C337.462 95.0209 328.098 80.946 306.907 77.5861C306.907 77.5861 304.25 82.7907 307.212 84.1031Z" fill="#072249"/>
<path d="M294.028 79.6554C297.259 79.7793 297.159 73.9332 297.159 73.9332C295.319 73.3787 293.539 72.9303 291.806 72.5882H291.8C291.481 72.5292 291.169 72.4643 290.856 72.4112C290.478 72.34 290.088 72.3788 289.732 72.5231C289.375 72.6675 289.068 72.9112 288.846 73.2253C288.12 74.2627 287.801 75.5309 287.95 76.7884C288 77.1898 288.168 77.5671 288.434 77.8719C288.7 78.1767 289.051 78.3951 289.441 78.4992C289.453 78.4992 289.459 78.5051 289.465 78.5051H289.471C291.405 79.0419 292.572 79.6023 294.028 79.6554Z" fill="#072249"/>
<path d="M324.258 43.4285C326.842 43.9128 329.4 44.5271 331.922 45.2691C339.787 47.6304 347.346 50.9093 354.445 55.0382C376.807 67.8178 368.612 107.363 366.963 114.359C372.854 105.252 382.257 100.85 388.342 104.506C394.629 108.283 394.993 119.23 389.156 128.957C386.937 132.756 383.862 135.985 380.175 138.383C382.695 137.825 385.085 136.788 387.215 135.329C392.976 131.419 398.153 126.709 402.589 121.342C404.51 119.016 406.304 116.587 407.963 114.067C422.741 91.6385 428.481 60.1571 412.425 37.3995C403.145 24.245 388.431 15.7442 372.134 15.891C360.429 15.9965 344.46 17.4517 335.761 7.57962C325.437 -4.13667 302.107 -2.93916 300.715 19.1003C300.391 24.2555 300.752 29.7451 303.085 34.4453C304.209 36.7777 305.897 38.7925 307.996 40.3071C308.753 40.8362 309.561 41.2899 310.406 41.6616C312.227 42.4686 314.056 42.4343 315.943 42.464C316.477 42.4724 317.015 42.4848 317.56 42.5242C319.171 42.6407 320.791 42.847 322.396 43.1052C322.952 43.1944 323.505 43.2892 324.055 43.3898L324.075 43.3931C324.134 43.4049 324.193 43.4167 324.258 43.4285Z" fill="#007BFF"/>
<path d="M389.155 128.957C394.993 119.23 394.629 108.283 388.342 104.506C382.257 100.85 372.854 105.252 366.963 114.36C366.768 114.661 366.577 114.967 366.39 115.279C360.552 125.006 360.917 135.953 367.203 139.73C368.526 140.512 370.023 140.949 371.559 141.001C374.291 141.122 377.286 140.189 380.175 138.383C383.862 135.985 386.937 132.756 389.155 128.957Z" fill="#FCE4EC"/>
<path d="M255.942 274.305C260.905 263.274 268.132 253.411 277.155 245.358C277.112 244.702 277.084 244.043 277.084 243.378C277.085 236.779 279.254 230.364 283.256 225.119C287.258 219.875 292.872 216.092 299.234 214.353C296.394 214.656 293.698 214.881 291.211 215.042C285.75 215.426 280.274 215.53 274.803 215.355H274.756C273.662 215.22 272.585 215.049 271.519 214.855C265.586 232.858 252.208 250.115 232.89 251.36C203.712 253.241 230.353 224.138 230.353 224.138C230.353 224.138 239.095 214.092 246.952 202.941C242.572 198.898 239.46 193.669 237.995 187.889C235.814 198.676 227.754 210.053 219.102 219.603C218.543 220.574 218.011 221.573 217.527 222.587C217.552 223.202 217.599 223.82 217.682 224.445C218.525 230.807 216.433 237.435 214.116 243.279C212.633 246.976 210.932 250.581 209.022 254.076C208.341 255.333 207.637 256.577 206.91 257.808C206.624 258.29 206.252 258.75 205.982 259.228C205.16 260.686 205.644 262.82 205.955 264.369C206.292 266.151 206.884 267.876 207.713 269.49C209.658 273.159 212.171 276.566 214.353 280.1C219.269 288.063 224.14 296.054 228.964 304.073C234.732 313.667 240.407 323.316 245.989 333.02L245.989 333.02V333.02C247.64 308.544 250.647 286.298 255.942 274.305Z" fill="#FBB03B"/>
<path d="M244.543 430C245.625 430.001 246.709 429.999 247.794 429.994C246.899 428.358 245.758 426.255 244.409 423.732C244.452 425.996 244.497 428.09 244.543 430Z" fill="#F0F3FF"/>
<path d="M287.349 292.144C285.651 287.047 295.839 260.719 295.839 260.719C299.012 254.942 302.721 249.477 306.918 244.396C300.043 245.517 293.074 246.137 290.745 244.579C288.475 243.069 288.9 239.199 290.067 235.376C285.51 238.362 281.193 241.7 277.155 245.358C268.132 253.411 260.904 263.274 255.942 274.305C250.647 286.298 247.64 308.544 245.989 333.02V333.02C250.665 341.19 255.039 349.078 258.618 355.962C267.598 337.326 283.057 310.579 291.447 296.339C289.124 294.51 287.65 293.041 287.349 292.144Z" fill="#F0F3FF"/>
<path d="M378.04 238.94C394.884 280.782 345.07 321.87 345.07 321.87C343.321 321.751 341.586 321.474 339.887 321.044C329.158 344.027 295.418 411.846 263.051 429.698C294.661 428.609 326.107 424.639 356.997 417.837C400.483 363.403 397.051 281.627 378.04 238.94Z" fill="#F0F3FF"/>
<path d="M363.76 157.035C363.387 157.553 363.01 158.051 362.631 158.541C362.918 158.549 363.21 158.556 363.488 158.565C363.577 158.049 363.667 157.537 363.76 157.035Z" fill="#FCE4EC"/>
<path d="M356.237 194.053C356.199 194.084 356.16 194.114 356.119 194.141C355.745 194.448 355.356 194.736 354.952 195.002C343.579 204.171 328.429 209.259 314.361 212.065C314.168 213.067 314.058 214.109 313.816 215.089C313.374 217.046 312.791 218.968 312.071 220.841C311.516 222.168 311.251 224.062 310.037 224.976C309.705 225.205 309.347 225.391 308.969 225.531C305.898 226.811 302.838 228.085 299.884 229.619C296.513 231.366 293.237 233.287 290.067 235.376C288.9 239.199 288.475 243.069 290.745 244.579C293.074 246.137 300.043 245.517 306.918 244.396C309.969 240.713 313.387 237.349 317.117 234.356C345.801 211.644 374.367 231.577 374.367 231.577C374.491 231.784 374.609 231.984 374.727 232.191C374.19 231.194 373.642 230.232 373.082 229.294C365.497 216.553 362.348 202.502 361.571 189.275C360.015 191.1 358.221 192.707 356.237 194.053V194.053Z" fill="#FCE4EC"/>
<path d="M371.867 169.665C372.986 166.305 373.89 162.876 374.573 159.401C370.896 158.924 367.196 158.645 363.489 158.565C363.211 158.556 362.919 158.549 362.632 158.541L362.61 158.541C361.827 158.52 361.021 158.502 360.17 158.492C360.14 158.87 359.22 172.444 371.867 169.665Z" fill="#072249"/>
<path d="M246.952 202.941C252.925 194.464 258.387 185.347 259.105 179.518C259.262 178.233 259.717 177.001 260.434 175.923C261.152 174.845 262.112 173.949 263.237 173.309C266.374 171.547 272.797 175.898 274.587 188.739C275.638 196.285 274.547 205.667 271.518 214.855C272.584 215.049 273.661 215.22 274.755 215.355H274.802C280.273 215.53 285.75 215.426 291.21 215.042C293.697 214.881 296.394 214.656 299.233 214.353C303.953 213.847 309.078 213.118 314.361 212.065C328.428 209.259 343.578 204.171 354.951 195.002C355.355 194.736 355.745 194.448 356.118 194.141C356.159 194.114 356.199 194.084 356.236 194.053C358.22 192.707 360.014 191.1 361.57 189.275C366.54 183.561 369.837 175.832 371.866 169.665C359.22 172.444 360.139 158.87 360.169 158.492C353.19 158.412 346.213 158.715 339.268 159.401C338.525 159.477 337.77 159.519 336.998 159.548C335.234 159.607 333.469 159.571 331.709 159.442C322.836 158.793 313.461 156.091 307.678 154.15C307.666 154.15 307.654 154.139 307.648 154.139C299.71 149.977 290.868 147.839 281.906 147.915C281.839 147.915 281.773 147.918 281.705 147.918C281.213 147.92 280.723 147.928 280.234 147.942C260.251 148.502 243.63 159.051 238.742 173.217C237.148 177.787 236.856 182.71 237.899 187.437C237.932 187.587 237.959 187.739 237.995 187.889C239.46 193.669 242.571 198.898 246.952 202.941V202.941ZM290.731 171.784C294 167.688 301.084 160.591 307.376 166.315C307.42 166.357 307.449 166.412 307.457 166.472C307.466 166.532 307.454 166.594 307.424 166.646C307.393 166.699 307.346 166.739 307.289 166.761C307.233 166.784 307.171 166.786 307.113 166.769C304.71 166.06 298.731 165.364 291.119 172.15C291.069 172.195 291.004 172.22 290.936 172.219C290.869 172.218 290.805 172.192 290.756 172.146C290.707 172.1 290.677 172.037 290.673 171.97C290.668 171.903 290.689 171.837 290.731 171.784V171.784Z" fill="#FBB03B"/>
<path d="M317.118 234.356C313.387 237.349 309.969 240.713 306.918 244.396C302.721 249.477 299.012 254.942 295.839 260.719C295.839 260.719 285.651 287.047 287.349 292.144C287.65 293.041 289.124 294.51 291.447 296.339C301.081 303.907 325.242 317.523 339.888 321.044C341.587 321.474 343.321 321.751 345.07 321.87C345.07 321.87 394.885 280.782 378.04 238.94C376.979 236.568 375.874 234.318 374.727 232.191C374.609 231.984 374.491 231.784 374.367 231.577C374.367 231.577 345.801 211.644 317.118 234.356Z" fill="#007BFF"/>
<path d="M232.89 251.36C252.208 250.115 265.585 232.857 271.519 214.855C274.547 205.667 275.639 196.285 274.587 188.739C272.798 175.898 266.374 171.547 263.237 173.309C262.112 173.949 261.152 174.845 260.435 175.923C259.717 177.001 259.262 178.233 259.105 179.518C258.387 185.347 252.925 194.464 246.952 202.941C239.095 214.092 230.352 224.138 230.352 224.138C230.352 224.138 203.712 253.241 232.89 251.36Z" fill="#072249"/>
<path d="M194.175 217.461C195.195 219.247 197.261 220.659 201.374 217.788C203.992 215.96 206.515 212.873 209.312 209.705C211.343 201.419 222.432 185.271 220.239 185.519C219.206 185.636 218.16 186.463 217.332 187.026C215.815 188.057 214.37 189.194 212.943 190.345C210.036 192.691 207.119 195.092 204.377 197.631C204.19 197.87 203.95 198.063 203.676 198.193C203.402 198.324 203.102 198.388 202.799 198.382C202.346 198.335 203.277 197.023 203.415 196.771C203.783 196.103 204.144 195.43 204.499 194.755C205.183 193.455 205.843 192.143 206.48 190.819C207.639 188.409 208.718 185.963 209.717 183.481C211.239 179.766 212.519 175.956 213.548 172.075C213.871 170.887 214.127 169.681 214.313 168.464C214.324 168.38 214.308 168.295 214.265 168.222C214.222 168.149 214.156 168.092 214.078 168.061C213.999 168.03 213.912 168.027 213.832 168.051C213.751 168.076 213.681 168.127 213.632 168.196L195.355 194.227C195.231 200.473 194.615 206.7 193.512 212.85C193.192 214.417 193.426 216.048 194.175 217.461Z" fill="#EAC1D0"/>
<path d="M228.268 207.355C228.304 207.318 228.328 207.272 228.34 207.222C228.352 207.171 228.35 207.119 228.335 207.07C228.319 207.021 228.291 206.977 228.253 206.942C228.216 206.907 228.169 206.883 228.119 206.873C226.594 206.574 224.1 207.268 221.444 208.33C219.155 212.307 217.304 217.237 217.526 222.587C218.011 221.573 218.542 220.574 219.101 219.603C221.71 215.203 224.783 211.097 228.268 207.355V207.355Z" fill="#EAC1D0"/>
<path d="M339.887 321.044C325.242 317.523 301.08 303.907 291.446 296.339C283.057 310.579 267.597 337.326 258.618 355.962C255.039 349.077 250.664 341.19 245.989 333.02L245.989 333.02C240.43 323.303 234.755 313.654 228.964 304.073C224.142 296.053 219.272 288.062 214.352 280.1C212.17 276.566 209.657 273.159 207.713 269.49C206.884 267.876 206.291 266.151 205.954 264.369C205.643 262.82 205.159 260.686 205.982 259.228C206.252 258.75 206.624 258.29 206.909 257.808C207.637 256.578 208.341 255.334 209.021 254.076C210.932 250.581 212.633 246.976 214.115 243.279C216.433 237.436 218.524 230.807 217.682 224.445C217.599 223.82 217.552 223.202 217.526 222.587C217.305 217.237 219.155 212.308 221.445 208.33C223.272 205.198 225.486 202.31 228.035 199.732C228.125 199.639 228.185 199.521 228.208 199.394C228.23 199.267 228.214 199.136 228.162 199.018C228.11 198.9 228.023 198.801 227.913 198.732C227.804 198.664 227.676 198.63 227.547 198.635C226.962 198.647 226.395 198.697 225.837 198.765C218.719 199.624 213.678 204.759 209.312 209.705C206.515 212.873 203.992 215.96 201.374 217.788C197.26 220.659 195.195 219.247 194.174 217.462C193.426 216.048 193.191 214.418 193.511 212.85C194.614 206.7 195.231 200.473 195.355 194.227C195.597 178.9 192.26 169.597 190.543 165.859C190.505 165.773 190.438 165.702 190.354 165.659C190.27 165.617 190.173 165.605 190.081 165.625C189.989 165.646 189.907 165.698 189.849 165.772C189.791 165.847 189.761 165.939 189.763 166.034C189.862 169.891 189.046 179.53 181.719 198.344C178.16 207.484 177.312 217.52 177.688 227.251C178.046 235.453 179.171 243.604 181.05 251.596C181.058 251.632 181.068 251.668 181.077 251.704C181.721 254.457 182.749 257.204 183.274 259.966C183.328 260.289 183.359 260.616 183.367 260.944C183.367 268.407 184.838 276.049 186.4 283.317C188.11 291.279 190.308 299.132 192.765 306.894C195.416 315.272 198.381 323.55 201.54 331.75C204.756 340.098 208.179 348.365 211.747 356.568C215.173 364.445 218.726 372.265 222.405 380.028C224.85 385.203 227.348 390.354 229.897 395.479C230.776 397.257 231.645 399.039 232.534 400.811C235.356 406.433 238.23 412.028 241.156 417.597C242.233 419.646 243.317 421.691 244.409 423.732C245.758 426.255 246.899 428.358 247.794 429.994C252.844 429.97 257.93 429.871 263.051 429.698C295.418 411.846 329.158 344.027 339.887 321.044Z" fill="#FCE4EC"/>
<path d="M291.118 172.15C298.731 165.364 304.71 166.06 307.112 166.769C307.171 166.786 307.233 166.784 307.289 166.761C307.346 166.739 307.393 166.699 307.424 166.646C307.454 166.594 307.466 166.532 307.457 166.472C307.449 166.412 307.42 166.357 307.376 166.315C301.083 160.591 294 167.688 290.731 171.784C290.689 171.836 290.668 171.903 290.673 171.97C290.677 172.037 290.707 172.1 290.756 172.146C290.805 172.192 290.869 172.218 290.936 172.219C291.004 172.22 291.069 172.195 291.118 172.15V172.15Z" fill="#072249"/>
<path d="M222.405 380.028C218.735 372.262 215.183 364.442 211.747 356.568C208.179 348.365 204.757 340.098 201.54 331.75C198.381 323.55 195.416 315.272 192.765 306.894C190.308 299.132 188.11 291.279 186.4 283.317C184.839 276.049 183.368 268.407 183.368 260.944C183.359 260.616 183.328 260.289 183.274 259.966C182.749 257.204 181.721 254.457 181.077 251.704C157.763 270.594 109.567 312.6 94.4581 348.312L94.4522 348.318C93.7565 349.504 93.1041 350.713 92.4948 351.946C91.043 354.873 89.846 357.92 88.9173 361.053C43.6643 350.151 61.5331 260.454 61.5331 260.454C61.5331 260.454 16.2182 337.096 88.5166 390.924C90.1058 396.803 92.6135 402.394 95.9469 407.49C130.525 418.294 166.19 425.24 202.293 428.201C215.241 420.282 225.073 408.831 229.897 395.479C227.359 390.348 224.862 385.198 222.405 380.028Z" fill="#FBB03B"/>
</svg>
