<svg width="179" height="146" viewBox="0 0 179 146" fill="none" xmlns="http://www.w3.org/2000/svg">
<path d="M95.3394 33.3872C95.3394 33.3872 118.158 48.8544 125.056 55.9549C131.954 63.0554 182.54 67.6861 178.803 127.268C178.803 127.268 157.772 151.04 100.6 136.53C43.4285 122.02 95.3394 33.3872 95.3394 33.3872Z" fill="#EDA03A"/>
<path d="M94.5905 42.5996C101.722 51.7245 101.828 63.0274 98.4294 79.4413C95.031 95.8552 68.7127 110.599 47.0841 104.322C25.4556 98.0446 27.27 97.77 18.3428 82.1788C9.41555 66.5876 14.8365 50.11 14.8365 50.11C14.8365 50.11 4.44258 10.4306 10.3561 4.59146C16.2697 -1.24771 37.4084 24.1783 37.4084 24.1783C37.4084 24.1783 47.23 20.6078 69.7335 21.8566C69.7335 21.8566 86.9215 -1.07923 92.8224 0.0396446C98.7233 1.15852 94.5905 42.5996 94.5905 42.5996Z" fill="#FBB03B"/>
<path d="M130.578 66.8914H123.506C121.295 66.8914 119.106 66.4178 117.067 65.4982C115.029 64.5786 113.182 63.2316 111.634 61.5359L105.876 55.228C104.345 53.5398 102.516 52.1969 100.496 51.2781C98.4762 50.3594 96.3056 49.8832 94.1118 49.8777H86.9505C84.7567 49.8832 82.5861 50.3593 80.566 51.2781C78.5459 52.1969 76.717 53.5398 75.1866 55.228L69.4282 61.536C67.8804 63.2316 66.0331 64.5786 63.9947 65.4982C61.9563 66.4178 59.7676 66.8914 57.5566 66.8914H24.6106C22.4084 66.8914 20.2964 67.831 18.7392 69.5036C17.182 71.1762 16.3072 73.4446 16.3072 75.81V137.004C16.3072 139.37 17.182 141.638 18.7392 143.311C20.2964 144.983 22.4084 145.923 24.6106 145.923H130.578C131.669 145.923 132.748 145.692 133.756 145.244C134.763 144.796 135.679 144.139 136.45 143.311C137.221 142.482 137.832 141.499 138.249 140.417C138.667 139.335 138.881 138.176 138.881 137.004V75.8099C138.881 73.4445 138.007 71.1761 136.45 69.5036C134.892 67.831 132.78 66.8914 130.578 66.8914Z" fill="#007BFF"/>
<path d="M32.4717 61.283H40.9563C42.2324 61.283 43.4562 61.8274 44.3585 62.7966C45.2608 63.7658 45.7677 65.0803 45.7677 66.4509V66.8399H27.6603V66.4509C27.6603 65.7722 27.7847 65.1002 28.0265 64.4732C28.2683 63.8462 28.6227 63.2765 29.0695 62.7966C29.5163 62.3167 30.0467 61.9361 30.6305 61.6764C31.2142 61.4166 31.8399 61.283 32.4717 61.283Z" fill="#072249"/>
<path d="M90.7808 140.36C107.431 140.36 120.928 125.863 120.928 107.979C120.928 90.0958 107.431 75.5984 90.7808 75.5984C74.1309 75.5984 60.6336 90.0958 60.6336 107.979C60.6336 125.863 74.1309 140.36 90.7808 140.36Z" fill="#072249"/>
<path d="M90.7801 136.45C105.419 136.45 117.287 123.703 117.287 107.979C117.287 92.2555 105.419 79.5088 90.7801 79.5088C76.141 79.5088 64.2736 92.2555 64.2736 107.979C64.2736 123.703 76.141 136.45 90.7801 136.45Z" fill="#F0F3FF"/>
<path d="M97.639 54.5198H83.2672C83.0102 54.5198 82.8019 54.7435 82.8019 55.0196V63.2129C82.8019 63.4889 83.0102 63.7127 83.2672 63.7127H97.639C97.896 63.7127 98.1043 63.4889 98.1043 63.2129V55.0196C98.1043 54.7435 97.896 54.5198 97.639 54.5198Z" fill="#F0F3FF"/>
<path d="M123.677 106.428C123.677 106.428 90.7191 106.223 93.0185 125.157C93.8156 131.72 98.3591 136.069 103.902 138.286C110.079 140.757 116.695 140.872 123.205 140.94C131.068 141.022 137.893 141.675 146.222 140.584C149.156 140.2 148.833 133.859 148.574 131.86C147.978 127.026 146.429 122.385 144.03 118.245C141.171 113.412 136.963 109.675 131.885 107.853C129.233 106.928 126.465 106.448 123.677 106.428V106.428Z" fill="#FBB03B"/>
<path d="M2.89657 110.161C5.71359 106.201 10.1886 104.025 14.8274 104.135C24.9079 104.376 48.1779 107.343 51.7633 129.326C56.3621 157.522 8.84196 138.058 5.77615 135.441C3.28517 133.316 -4.0126 119.874 2.89657 110.161Z" fill="#FBB03B"/>
</svg>
