<svg width="51" height="51" viewBox="0 0 51 51" fill="none" xmlns="http://www.w3.org/2000/svg">
<path d="M43.307 23.6185V1.69215C43.307 1.50858 43.2281 1.33253 43.0877 1.20272C42.9473 1.07292 42.7568 1 42.5582 1H1.74889C1.55027 1 1.35979 1.07292 1.21934 1.20272C1.0789 1.33253 1 1.50858 1 1.69215V23.6185C1 23.8021 1.0789 23.9781 1.21934 24.1079C1.35979 24.2377 1.55027 24.3107 1.74889 24.3107H19.3316V28.3775H11.7289V29.6555H32.5781V28.3775H24.9755V24.3107H42.5582C42.7568 24.3107 42.9473 24.2377 43.0877 24.1079C43.2281 23.9781 43.307 23.8021 43.307 23.6185V23.6185ZM19.3316 23.1611H2.36965V2.14953H41.9374V23.1611H19.3316V23.1611Z" fill="#072249" stroke="#072249" stroke-miterlimit="10"/>
<path d="M28.2428 25.0306L27.9329 25.8203C28.0283 25.5522 28.1316 25.2896 28.2428 25.0306Z" stroke="#00FF57" stroke-miterlimit="10"/>
<path d="M27.9338 25.8202L27.9152 25.8679" stroke="#00FF57" stroke-miterlimit="10"/>
<path d="M49.3514 26.2316C49.3507 26.2266 49.3492 26.2216 49.3469 26.2169" stroke="#00FF57" stroke-miterlimit="10"/>
<path d="M44.0892 43.0879C44.0892 43.0879 51.0149 41.5071 49.987 30.3595C49.9896 28.967 49.7768 27.5812 49.3552 26.2443C49.3533 26.2402 49.352 26.2359 49.3512 26.2315C49.3506 26.2264 49.3493 26.2215 49.3472 26.2168C49.2538 25.8605 48.2108 21.9657 46.5557 19.6795C46.5537 19.6777 46.5537 19.6758 46.5517 19.674C46.2279 19.0405 45.7888 18.4473 45.3676 17.7844C45.304 17.6816 45.2424 17.5806 45.1848 17.4759C44.3364 15.9408 44.241 14.1522 43.8198 12.4958C43.8111 12.462 43.7923 12.4312 43.7655 12.4068C43.7387 12.3824 43.705 12.3655 43.6683 12.3581C43.6316 12.3506 43.5933 12.3528 43.5579 12.3645C43.5225 12.3762 43.4914 12.3969 43.4682 12.4242L40.9349 15.4394C39.297 15.0722 37.5873 15.0772 35.9519 15.4541L33.8757 11.6952C33.8579 11.6633 33.8304 11.6369 33.7966 11.6193C33.7628 11.6018 33.7241 11.5937 33.6854 11.5963C33.6467 11.5988 33.6096 11.6118 33.5788 11.6336C33.548 11.6555 33.5248 11.6852 33.5121 11.7191C32.8783 13.3993 32.3498 15.1126 31.6822 16.7818C31.2411 17.8891 30.5557 18.9523 30.1762 20.0835C30.1722 20.0982 30.1663 20.1129 30.1623 20.1275L28.243 25.0305L27.933 25.8201C26.8988 28.772 26.8999 31.9504 27.9363 34.9016L27.933 34.9023C29.3487 42.2699 35.338 43.6159 39.6108 43.5954L39.5998 43.5967C39.5998 43.5967 43.8609 46.0768 41.9967 47.5888C40.4611 48.8343 37.6206 48.385 35.8317 47.9941C35.718 47.9653 35.6017 47.9464 35.4842 47.9377C34.6685 47.9034 33.4611 48.6478 33.7526 49.4927C33.8318 49.7559 33.9887 49.9935 34.2059 50.1788C34.423 50.3641 34.6918 50.4898 34.9819 50.5418C36.9528 50.9155 38.9662 51.0615 40.976 50.9765C42.6712 50.8847 44.5504 50.58 45.8773 49.5228C49.1874 46.8855 44.0892 43.0879 44.0892 43.0879Z" fill="#EB7E44"/>
<path d="M45.1259 24.8068C41.0777 23.9346 36.8667 23.9346 32.8184 24.8068C31.8078 25.0234 31.0016 24.4977 31.0016 23.5548C31.0016 22.6139 31.8078 21.6126 32.8184 21.3959C36.8667 20.5238 41.0777 20.5238 45.1259 21.3959C46.1365 21.6125 46.9428 22.614 46.9428 23.5548C46.9428 24.4977 46.1365 25.0234 45.1259 24.8068Z" fill="#DB5D43"/>
<path d="M47.4094 30.1711C41.9007 29.2959 36.2444 29.6722 30.9281 31.2676C29.9222 31.5646 29.0558 31.1106 28.9799 30.193V30.193C28.9043 29.277 29.6459 28.2368 30.65 27.9305C35.9552 26.2941 41.6113 25.874 47.1312 26.7063C48.137 26.8597 49.0036 27.812 49.0794 28.7727V28.7727C49.1551 29.7349 48.4134 30.3338 47.4094 30.1711Z" fill="#DB5D43"/>
<path d="M47.1547 35.0785C41.9958 34.6127 36.7897 35.2279 31.9236 36.8783C30.9234 37.2105 30.0088 36.8403 29.8679 35.9915C29.7272 35.1443 30.4096 34.1252 31.4061 33.7755C36.2548 32.0544 41.4603 31.3632 46.6372 31.7531C47.6374 31.8311 48.5519 32.6939 48.6928 33.6202V33.6202C48.8336 34.5481 48.1511 35.174 47.1547 35.0785Z" fill="#DB5D43"/>
<path d="M45.9931 39.4326C42.3418 39.103 38.6572 39.5384 35.2131 40.7064C34.5052 40.9415 33.8579 40.6796 33.7582 40.0788C33.6586 39.4791 34.1416 38.7579 34.8469 38.5104C38.2786 37.2922 41.9628 36.8031 45.6268 37.079C45.9898 37.1278 46.3265 37.2822 46.5881 37.5198C46.8497 37.7574 47.0226 38.0659 47.0818 38.4005V38.4005C47.1814 39.0572 46.6983 39.5002 45.9931 39.4326Z" fill="#DB5D43"/>
<path d="M44.5108 44.5601C43.6717 44.6186 42.9317 45.0772 42.3602 45.9152C42.2458 46.0816 42.0567 45.9899 41.9282 45.6893C41.7999 45.3892 41.7785 44.9889 41.8901 44.8163C42.45 43.9521 43.1806 43.4667 44.0128 43.3806C44.1787 43.3626 44.4296 43.6326 44.5678 43.9613C44.7062 44.2905 44.6783 44.5486 44.5108 44.5601Z" fill="#DB5D43"/>
<path d="M46.1443 48.6663C45.6403 48.0271 44.7671 47.7838 43.5827 47.9768C43.347 48.0144 43.344 47.7878 43.5931 47.4462C43.8418 47.1052 44.2524 46.7727 44.4931 46.7279C45.6989 46.5049 46.5955 46.7194 47.1249 47.3312C47.2312 47.4525 47.079 47.8699 46.8054 48.2415C46.5313 48.6137 46.2446 48.794 46.1443 48.6663Z" fill="#DB5D43"/>
<path d="M41.3607 48.2183C41.0026 48.9221 41.07 49.7432 41.5777 50.6156C41.6781 50.7896 41.4986 50.8966 41.1522 50.8519C40.8065 50.8072 40.419 50.6273 40.3114 50.4525C39.7733 49.5766 39.676 48.7499 40.0048 48.038C40.0695 47.8958 40.4473 47.8269 40.8249 47.8775C41.2031 47.9284 41.4323 48.0779 41.3607 48.2183Z" fill="#DB5D43"/>
<path d="M38.0541 48.6168C37.7765 49.1622 37.8288 49.7985 38.2222 50.4746C38.3 50.6094 38.1609 50.6923 37.8925 50.6577C37.641 50.6337 37.4084 50.5233 37.2409 50.3482C36.8239 49.6694 36.7485 49.0287 37.0033 48.4771C37.0534 48.3668 37.3462 48.3134 37.6388 48.3527C37.9319 48.3921 38.1096 48.508 38.0541 48.6168Z" fill="#DB5D43"/>
<path d="M34.7292 17.5858C34.6512 17.4537 34.6187 17.3028 34.6362 17.1532C34.6537 17.0037 34.7202 16.8626 34.8269 16.749L36.2419 15.443C36.2894 15.3971 36.3485 15.3629 36.414 15.3436C36.4795 15.3242 36.5491 15.3204 36.6166 15.3324C36.6841 15.3444 36.7472 15.3718 36.8002 15.4122C36.8533 15.4526 36.8945 15.5046 36.9202 15.5635V15.5635C36.9982 15.6955 37.0306 15.8465 37.0132 15.996C36.9957 16.1456 36.9292 16.2866 36.8225 16.4003L35.4075 17.7063C35.36 17.7522 35.3008 17.7864 35.2354 17.8057C35.1699 17.825 35.1002 17.8289 35.0328 17.8169C34.9653 17.8049 34.9021 17.7775 34.8491 17.7371C34.7961 17.6967 34.7548 17.6447 34.7292 17.5858V17.5858Z" fill="#DB5D43"/>
<path d="M37.1733 18.2452C37.0119 18.2255 36.8609 18.1607 36.7406 18.0594C36.6202 17.9581 36.5363 17.8252 36.5 17.6786L36.1942 15.852C36.1821 15.7895 36.1871 15.7252 36.2089 15.665C36.2306 15.6047 36.2684 15.5505 36.3187 15.5072C36.369 15.4639 36.4302 15.433 36.4968 15.4173C36.5633 15.4015 36.6331 15.4014 36.6997 15.4171C36.8611 15.4368 37.012 15.5016 37.1324 15.6029C37.2527 15.7042 37.3367 15.8371 37.3729 15.9837L37.6788 17.8103C37.6909 17.8728 37.6858 17.9371 37.6641 17.9973C37.6423 18.0576 37.6046 18.1118 37.5543 18.1551C37.504 18.1984 37.4428 18.2293 37.3762 18.245C37.3096 18.2608 37.2399 18.2609 37.1733 18.2452V18.2452Z" fill="#DB5D43"/>
<path d="M39.8602 18.3082C39.7039 18.2663 39.5651 18.1813 39.4626 18.0644C39.36 17.9476 39.2986 17.8046 39.2865 17.6546L39.2805 15.8063C39.2787 15.7428 39.2941 15.6799 39.3254 15.6234C39.3567 15.5669 39.4028 15.5185 39.4595 15.4827C39.5163 15.4468 39.5818 15.4247 39.6502 15.4184C39.7186 15.4121 39.7876 15.4217 39.8509 15.4463C40.0072 15.4882 40.146 15.5732 40.2485 15.6901C40.3511 15.8069 40.4125 15.9499 40.4246 16.0999L40.4306 17.9482C40.4324 18.0117 40.417 18.0746 40.3857 18.1311C40.3544 18.1877 40.3083 18.2361 40.2516 18.2719C40.1948 18.3077 40.1293 18.3298 40.0609 18.3361C39.9925 18.3425 39.9235 18.3328 39.8602 18.3082V18.3082Z" fill="#DB5D43"/>
<path d="M42.0887 17.1697C41.9599 17.2617 41.8037 17.315 41.6411 17.3226C41.4786 17.3302 41.3174 17.2916 41.1792 17.2121L39.5612 16.126C39.5047 16.0899 39.4588 16.0412 39.4279 15.9845C39.397 15.9278 39.3819 15.8648 39.3841 15.8014C39.3863 15.7379 39.4057 15.6759 39.4405 15.6212C39.4753 15.5664 39.5244 15.5206 39.5833 15.4879C39.7122 15.396 39.8683 15.3426 40.0309 15.335C40.1934 15.3275 40.3546 15.366 40.4928 15.4455L42.1108 16.5317C42.1673 16.5678 42.2132 16.6164 42.2441 16.6731C42.275 16.7299 42.2901 16.7928 42.2879 16.8563C42.2857 16.9198 42.2663 16.9817 42.2315 17.0365C42.1967 17.0912 42.1476 17.1371 42.0887 17.1697V17.1697Z" fill="#DB5D43"/>
<path d="M18.7718 11.5958H11.3311V17.8255H18.7718V11.5958Z" fill="#072249"/>
<path d="M15.0517 7.37366L9.63837 12.8813H20.4653L15.0517 7.37366Z" fill="#072249"/>
<path d="M20.2677 16.224L20.9693 20.4343L21.9625 18.7794L24.0395 18.6446L20.2677 16.224Z" fill="#007BFF" stroke="#072249" stroke-miterlimit="10"/>
</svg>
