<svg width="170" height="154" viewBox="0 0 170 154" fill="none" xmlns="http://www.w3.org/2000/svg">
<path d="M11.7613 56.0063L10.984 72.3045C10.9741 72.5105 11.0157 72.7157 11.1049 72.9016C11.1941 73.0876 11.3281 73.2485 11.4949 73.3697C11.6617 73.491 11.856 73.569 12.0604 73.5965C12.2648 73.624 12.4728 73.6003 12.6658 73.5274L24.7972 68.9475C24.9902 68.8747 25.162 68.755 25.2972 68.5993C25.4324 68.4436 25.5268 68.2566 25.5718 68.0554C25.6168 67.8541 25.6111 67.6448 25.5551 67.4463C25.4992 67.2478 25.3947 67.0664 25.2512 66.9182L13.8971 55.2C13.7282 55.0257 13.5121 54.9046 13.2753 54.8517C13.0385 54.7987 12.7914 54.8161 12.5644 54.9018C12.3374 54.9875 12.1404 55.1378 11.9977 55.334C11.855 55.5302 11.7728 55.7639 11.7613 56.0063Z" fill="#EDA03A"/>
<path d="M48.1899 110.292C60.7453 109.061 63.2071 87.6431 63.9456 80.0114C64.6842 72.3798 59.5143 62.0401 57.0525 80.0114C54.5907 97.9828 41.7892 103.153 41.7892 103.153L48.1899 110.292Z" fill="#EDA03A"/>
<path d="M142.479 122.522C141.627 123.797 140.702 125.023 139.709 126.192C124.844 143.731 103.004 154 80.0076 154C61.9703 154 43.8527 147.951 30.2282 135.963C21.5985 128.371 14.4794 118.369 10.764 107.444C10.6064 106.985 10.4553 106.519 10.3043 106.056C9.73862 104.32 9.37547 102.649 8.17341 101.241C7.15772 100.049 5.83678 99.1585 4.82438 97.9597C2.11032 94.7304 0.45423 90.7451 0.0803548 86.5434C0.0257407 85.9488 1.13636e-06 85.351 1.13636e-06 84.7531C-0.00150128 80.2401 1.48683 75.8529 4.23397 72.2724C6.98112 68.6919 10.8334 66.1183 15.1929 64.9513C15.5882 64.8452 15.9932 64.752 16.3981 64.6685C17.5953 64.4262 18.812 64.2928 20.0333 64.2699C24.6455 63.3475 29.8168 64.5785 33.9148 66.5583C34.6437 66.9485 35.4037 67.2775 36.1871 67.5418C36.9971 67.7765 38.122 67.6575 39.2373 67.6061C39.1168 67.9359 39.0793 68.2902 39.128 68.6378C39.2437 69.7274 41.7668 70.8105 43.9458 71.3087C46.1539 77.1197 46.7421 83.445 42.6731 88.7514C41.3939 90.4163 39.7675 91.8241 38.707 93.6368C38.6555 93.7268 38.6041 93.8168 38.5527 93.91C38.4081 94.349 38.3695 94.816 38.4402 95.2728C38.7455 97.0501 40.9761 97.7926 42.4256 98.3775C43.422 98.7825 44.3765 99.1328 44.9776 99.4574C45.4468 99.7114 45.9032 99.9813 46.3532 100.264C47.8158 101.215 49.2286 102.241 50.5861 103.337C52.1031 104.529 53.6073 105.738 55.2143 106.795C55.2272 106.805 55.2433 106.814 55.2562 106.824C62.6485 111.681 72.1525 109.983 78.6737 104.304C79.4897 103.627 80.2041 102.835 80.7951 101.955C81.2186 101.243 81.582 100.497 81.8814 99.7242C84.2663 94.0257 86.6189 89.2239 90.7554 85.216C91.9385 84.0741 93.217 83.0354 94.577 82.1112C95.194 81.6901 95.8208 81.2916 96.4636 80.9155C98.7626 79.5656 101.211 78.488 103.759 77.7047C108.674 76.1935 113.854 75.7454 118.956 76.3901C119.351 76.5412 119.746 76.7019 120.142 76.8658L132.635 86.0098C138.06 88.0957 142.804 91.0527 145.25 95.2342C145.25 95.2374 145.253 95.2406 145.253 95.2438C146.821 98.814 147.629 102.671 147.628 106.57C147.627 107.562 147.569 108.552 147.455 109.537C158.501 95.832 170.197 71.7972 146.423 46.6826C110.335 8.56387 217.942 47.7947 142.479 122.522Z" fill="#FBB03B"/>
<path d="M145.25 95.234C142.804 91.0526 138.06 88.0956 132.635 86.0097L120.142 76.8657C119.746 76.7018 119.351 76.5411 118.956 76.39C130.941 77.8974 140.888 85.264 145.25 95.234Z" fill="#EDA03A"/>
<path d="M39.0809 113.985C51.6362 112.754 54.098 91.3359 54.8366 83.7042C55.5751 76.0725 50.4053 65.7328 47.9435 83.7042C45.4816 101.676 32.6801 106.845 32.6801 106.845L39.0809 113.985Z" fill="#FBB03B"/>
<path d="M0.872538 61.751L1.18203 78.0648C1.18594 78.271 1.24106 78.473 1.34242 78.6526C1.44379 78.8322 1.58823 78.9837 1.76273 79.0937C1.93724 79.2036 2.13633 79.2684 2.3421 79.2823C2.54787 79.2961 2.75387 79.2586 2.94153 79.1731L14.7412 73.7957C14.9288 73.7101 15.0923 73.5793 15.2168 73.4149C15.3414 73.2505 15.4231 73.0577 15.4546 72.8539C15.4861 72.6501 15.4665 72.4416 15.3974 72.2473C15.3284 72.053 15.2121 71.8789 15.0591 71.7406L2.94994 60.8043C2.76987 60.6417 2.54616 60.5352 2.30637 60.4981C2.06658 60.461 1.82117 60.4949 1.60037 60.5955C1.37958 60.6961 1.19303 60.8591 1.06371 61.0645C0.934385 61.2698 0.867935 61.5084 0.872538 61.751V61.751Z" fill="#FBB03B"/>
<path d="M145.253 95.2438L132.635 86.0098C138.06 88.0957 142.804 91.0526 145.25 95.2341C145.25 95.2373 145.253 95.2405 145.253 95.2438Z" fill="#FBB03B"/>
<path d="M103.822 48.2362V37.1852H96.7488C96.1746 34.788 95.2262 32.4963 93.9384 30.3944L98.9378 25.395L91.1236 17.5807L86.1242 22.5802C84.0223 21.2923 81.7305 20.3439 79.3333 19.7697V12.697H68.2823V19.7697C65.8851 20.3439 63.5934 21.2923 61.4915 22.5801L56.4921 17.5807L48.6778 25.395L53.6773 30.3944C52.3895 32.4962 51.441 34.788 50.8667 37.1852H43.7943V48.2362H50.8668C51.441 50.6334 52.3895 52.9251 53.6773 55.027L48.6778 60.0264L56.4921 67.8407L61.4915 62.8412C63.5934 64.129 65.8851 65.0775 68.2823 65.6517V72.7243H79.3333V65.6517C81.7305 65.0775 84.0222 64.1291 86.1241 62.8412L91.1236 67.8407L98.9378 60.0264L93.9384 55.027C95.2262 52.9251 96.1747 50.6334 96.7488 48.2362L103.822 48.2362ZM73.8079 55.7242C71.2341 55.7242 68.718 54.9609 66.578 53.531C64.4379 52.1011 62.7699 50.0686 61.785 47.6907C60.8 45.3128 60.5423 42.6962 61.0444 40.1719C61.5466 37.6475 62.786 35.3287 64.6059 33.5088C66.4259 31.6888 68.7447 30.4494 71.2691 29.9472C73.7934 29.4451 76.41 29.7028 78.7879 30.6878C81.1658 31.6727 83.1983 33.3407 84.6282 35.4808C86.0581 37.6208 86.8214 40.1369 86.8214 42.7107C86.8214 44.4196 86.4848 46.1119 85.8308 47.6907C85.1768 49.2696 84.2182 50.7042 83.0098 51.9126C81.8014 53.121 80.3668 54.0796 78.7879 54.7336C77.2091 55.3876 75.5168 55.7242 73.8079 55.7242V55.7242Z" fill="#007BFF"/>
<path d="M47.6872 18.6878V13.1623H44.1508C43.8638 11.9637 43.3895 10.8178 42.7456 9.76689L45.2453 7.26717L41.3382 3.36006L38.8385 5.85977C37.7876 5.21585 36.6417 4.74162 35.4431 4.45453V0.918213H29.9176V4.45453C28.719 4.74163 27.5731 5.21587 26.5222 5.85977L24.0225 3.36006L20.1153 7.26717L22.6151 9.76688C21.9712 10.8178 21.4969 11.9637 21.2098 13.1623H17.6736V18.6878H21.2098C21.4969 19.8864 21.9711 21.0323 22.6151 22.0832L20.1153 24.5829L24.0225 28.49L26.5222 25.9903C27.5731 26.6342 28.719 27.1084 29.9176 27.3955V30.9319H35.4431V27.3955C36.6417 27.1085 37.7875 26.6342 38.8385 25.9903L41.3382 28.49L45.2453 24.5829L42.7456 22.0832C43.3895 21.0323 43.8638 19.8864 44.1508 18.6878L47.6872 18.6878ZM32.6804 22.4318C31.3935 22.4318 30.1354 22.0502 29.0654 21.3352C27.9954 20.6202 27.1614 19.604 26.6689 18.4151C26.1764 17.2261 26.0476 15.9178 26.2986 14.6556C26.5497 13.3935 27.1694 12.2341 28.0794 11.3241C28.9894 10.4141 30.1488 9.79438 31.411 9.54332C32.6731 9.29225 33.9814 9.4211 35.1704 9.91358C36.3593 10.4061 37.3755 11.24 38.0905 12.3101C38.8055 13.3801 39.1871 14.6381 39.1871 15.925C39.1871 16.7795 39.0188 17.6256 38.6918 18.415C38.3648 19.2045 37.8855 19.9218 37.2813 20.526C36.6771 21.1302 35.9598 21.6095 35.1704 21.9365C34.381 22.2635 33.5348 22.4318 32.6804 22.4318V22.4318Z" fill="#072249"/>
<path d="M120.142 76.8657L132.635 86.0097C128.354 84.3641 123.648 83.2552 119.312 82.5128C114.275 81.6498 109.183 81.1428 104.075 80.9958C101.208 81.06 98.6846 81.0279 96.4637 80.9154C90.9805 80.6422 87.3422 79.903 84.9317 79.0288C79.937 77.2225 80.1941 74.8408 80.1941 74.8408C80.1941 74.8408 98.7907 68.5477 118.956 76.39C119.351 76.5411 119.746 76.7018 120.142 76.8657Z" fill="#EDA03A"/>
<path d="M120.95 82.8892C100.336 74.3261 81.0033 80.8664 81.0033 80.8664C81.0033 80.8664 80.2771 87.5751 104.883 87.021L120.95 82.8892Z" fill="#FBB03B"/>
<path d="M43.9458 71.3087C41.7667 70.8105 39.2436 69.7274 39.128 68.6378C39.0792 68.2901 39.1168 67.9358 39.2372 67.6061C40.7896 67.5289 42.3195 67.5804 42.9301 68.9014C43.2934 69.692 43.6372 70.4955 43.9458 71.3087Z" fill="#FBB03B"/>
</svg>
