<svg width="170" height="170" viewBox="0 0 170 170" fill="none" xmlns="http://www.w3.org/2000/svg">
<path d="M164.578 0H58.2037C55.2093 0 52.7818 2.4036 52.7818 5.36858V135.346C52.7818 138.311 55.2093 140.715 58.2037 140.715H164.578C167.572 140.715 170 138.311 170 135.346V5.36858C170 2.4036 167.572 0 164.578 0Z" fill="#F0F3FF"/>
<path d="M153.008 13.9009H131.223C128.897 13.9009 127.011 15.768 127.011 18.0711V39.6413C127.011 41.9445 128.897 43.8115 131.223 43.8115H153.008C155.334 43.8115 157.219 41.9445 157.219 39.6413V18.0711C157.219 15.768 155.334 13.9009 153.008 13.9009Z" stroke="#072249" stroke-width="2" stroke-miterlimit="10"/>
<path d="M111.161 25.7922H66.954C65.5437 25.7922 64.4004 26.9243 64.4004 28.3207C64.4004 29.7172 65.5437 30.8492 66.954 30.8492H111.161C112.571 30.8492 113.715 29.7172 113.715 28.3207C113.715 26.9243 112.571 25.7922 111.161 25.7922Z" fill="#007BFF"/>
<path d="M111.161 62.2781H66.954C65.5437 62.2781 64.4004 63.4101 64.4004 64.8066C64.4004 66.203 65.5437 67.3351 66.954 67.3351H111.161C112.571 67.3351 113.715 66.203 113.715 64.8066C113.715 63.4101 112.571 62.2781 111.161 62.2781Z" fill="#007BFF"/>
<path d="M111.161 102.858H66.954C65.5437 102.858 64.4004 103.99 64.4004 105.386C64.4004 106.783 65.5437 107.915 66.954 107.915H111.161C112.571 107.915 113.715 106.783 113.715 105.386C113.715 103.99 112.571 102.858 111.161 102.858Z" fill="#007BFF"/>
<path d="M82.6308 66.3227C85.1306 62.1003 81.7486 57.7323 81.7486 57.7323C81.7486 57.7323 79.2488 57.8779 74.3963 54.0923C70.5547 51.0954 65.4228 52.3874 63.4513 53.0557C62.785 53.2861 62.0786 53.3808 61.3744 53.3344C60.255 53.2538 58.7009 52.995 58.074 52.1979C57.0446 50.8892 53.0744 45.3564 52.045 46.0844C51.0157 46.8124 51.6039 55.5497 50.7216 57.733C49.9121 59.7362 50.0424 62.2915 50.3358 64.3763C50.7142 67.0646 51.8954 69.4004 53.5149 71.4935C53.8176 71.8749 53.9852 72.3444 53.9918 72.8295C53.9985 73.3146 53.8439 73.7884 53.5517 74.1779C52.8641 75.0706 52.3046 76.1933 51.8339 77.0096C50.9066 78.6252 49.8766 80.1808 48.7499 81.667C46.9707 84.0024 44.9303 85.6633 42.5562 87.3508C40.698 88.7125 39.0003 90.2768 37.4952 92.0142C32.6074 97.5287 29.6578 104.48 28.4398 111.677C27.3263 118.257 27.5969 125.011 28.6842 131.575C28.6842 131.575 32.1267 145.891 20.2497 147.425C15.7694 148.004 11.0615 148.004 6.83979 149.786C4.27932 150.866 1.9418 152.692 0.775844 155.195C-1.227 159.493 0.860882 164.426 4.60048 167.025C7.26366 168.876 10.6888 169.498 13.872 169.739C15.6721 169.876 17.6236 170.245 19.3929 169.748C20.8767 169.331 22.2485 168.105 22.2183 166.534C22.2165 166.215 22.1344 165.901 21.9792 165.621C21.2748 164.394 19.5921 164.554 18.392 164.456C16.6049 164.311 14.8187 164.156 13.032 164.005C11.1537 163.847 9.20692 163.669 7.57221 162.739C6.78894 162.32 6.14279 161.689 5.70976 160.918C5.27673 160.148 5.07484 159.272 5.12783 158.392C5.22164 156.546 6.43907 155.466 8.06708 154.692C11.6478 152.989 15.6128 152.317 19.5527 152.119C23.5688 151.917 27.5749 152.436 31.5539 151.893C35.9161 151.299 40.162 152.121 44.4683 152.76C50.5287 153.661 56.3002 153.526 62.3544 152.737C64.9383 152.4 67.5461 152.015 70.062 151.326C70.9094 151.094 73.6092 150.543 73.6092 149.3C73.6092 146.743 73.9534 145.039 67.7569 144.869C67.9791 144.875 68.7999 142.956 68.8914 142.776C69.8213 140.945 70.6508 139.064 71.3765 137.144C73.0528 132.716 74.4474 127.916 74.3192 123.15C74.1928 118.45 72.964 113.528 74.6249 108.959C75.2236 107.311 76.1785 105.813 76.8412 104.19C77.9599 101.451 78.2141 98.4231 77.9744 95.4782C77.5143 89.8293 74.4617 84.4145 75.253 78.6635C75.5798 76.2883 76.6898 74.2901 78.2434 72.5002C79.8894 70.575 81.3578 68.5075 82.6308 66.3227V66.3227Z" fill="#FBB03B"/>
<path d="M48.052 35.9922V18.9983C48.052 18.3456 47.9222 17.6994 47.6699 17.0965C47.4177 16.4935 47.048 15.9456 46.5819 15.4842C46.1158 15.0227 45.5625 14.6566 44.9536 14.4069C44.3446 14.1571 43.692 14.0286 43.0328 14.0286H8.91294C7.62738 14.0286 6.39447 14.5342 5.48544 15.4343C4.57641 16.3344 4.06572 17.5551 4.06572 18.828V35.5089C4.06573 36.827 4.59453 38.0911 5.5358 39.0231C6.47708 39.9551 7.75372 40.4786 9.08488 40.4786H32.2878C32.5045 40.4789 32.714 40.5558 32.8784 40.6955C33.0428 40.8353 33.1514 41.0286 33.1845 41.2406C34.3183 48.4103 40.2829 52.8252 44.0397 54.9374C44.215 55.0354 44.4181 55.0731 44.6173 55.0445C44.8165 55.0159 45.0004 54.9226 45.1403 54.7793C45.2802 54.636 45.3681 54.4508 45.3902 54.2527C45.4123 54.0547 45.3674 53.8549 45.2624 53.6848C43.1984 50.3339 40.4637 44.659 42.7428 40.9086C42.8242 40.7767 42.9386 40.6678 43.0749 40.5925C43.2112 40.5172 43.3648 40.478 43.5209 40.4786C44.116 40.4786 44.7052 40.3626 45.2549 40.1371C45.8046 39.9117 46.3041 39.5812 46.7249 39.1646C47.1456 38.748 47.4794 38.2534 47.7071 37.7091C47.9348 37.1648 48.052 36.5814 48.052 35.9922V35.9922Z" fill="#F0F3FF" stroke="#007BFF" stroke-width="2" stroke-miterlimit="10"/>
<path d="M16.247 30.0385C17.8333 30.0385 19.1193 28.7651 19.1193 27.1944C19.1193 25.6237 17.8333 24.3503 16.247 24.3503C14.6606 24.3503 13.3746 25.6237 13.3746 27.1944C13.3746 28.7651 14.6606 30.0385 16.247 30.0385Z" fill="#007BFF"/>
<path d="M26.0432 30.0385C27.6295 30.0385 28.9155 28.7651 28.9155 27.1944C28.9155 25.6237 27.6295 24.3503 26.0432 24.3503C24.4568 24.3503 23.1708 25.6237 23.1708 27.1944C23.1708 28.7651 24.4568 30.0385 26.0432 30.0385Z" fill="#007BFF"/>
<path d="M35.87 30.0385C37.4564 30.0385 38.7424 28.7651 38.7424 27.1944C38.7424 25.6237 37.4564 24.3503 35.87 24.3503C34.2837 24.3503 32.9977 25.6237 32.9977 27.1944C32.9977 28.7651 34.2837 30.0385 35.87 30.0385Z" fill="#007BFF"/>
<path d="M153.008 53.4301H131.223C128.897 53.4301 127.011 55.2971 127.011 57.6003V79.1705C127.011 81.4736 128.897 83.3407 131.223 83.3407H153.008C155.334 83.3407 157.219 81.4736 157.219 79.1705V57.6003C157.219 55.2971 155.334 53.4301 153.008 53.4301Z" stroke="#072249" stroke-width="2" stroke-miterlimit="10"/>
<path d="M153.008 92.9595H131.223C128.897 92.9595 127.011 94.8266 127.011 97.1297V118.7C127.011 121.003 128.897 122.87 131.223 122.87H153.008C155.334 122.87 157.219 121.003 157.219 118.7V97.1297C157.219 94.8266 155.334 92.9595 153.008 92.9595Z" stroke="#072249" stroke-width="2" stroke-miterlimit="10"/>
<path d="M130.063 28.2489L140.019 38.1073L154.167 18.5344" stroke="#007BFF" stroke-width="4" stroke-miterlimit="10" stroke-linecap="round"/>
<path d="M130.063 68.3134L140.019 78.1719L154.167 58.599" stroke="#007BFF" stroke-width="4" stroke-miterlimit="10" stroke-linecap="round"/>
<path d="M130.063 106.76L140.019 116.618L154.167 97.0457" stroke="#007BFF" stroke-width="4" stroke-miterlimit="10" stroke-linecap="round"/>
</svg>
